<?xml version="1.0" standalone="no"?>
<!DOCTYPE svg PUBLIC "-//W3C//DTD SVG 20010904//EN"
 "http://www.w3.org/TR/2001/REC-SVG-20010904/DTD/svg10.dtd">
<svg version="1.0" xmlns="http://www.w3.org/2000/svg"
 width="512.000000pt" height="512.000000pt" viewBox="0 0 512.000000 512.000000"
 preserveAspectRatio="xMidYMid meet">

<g transform="translate(0.000000,512.000000) scale(0.100000,-0.100000)"
fill="#000000" stroke="none">
<path d="M1232 3903 l3 -286 425 -108 c496 -125 555 -136 795 -149 188 -11
333 -3 505 26 97 16 921 222 932 232 3 4 4 134 1 290 l-6 282 -1329 0 -1328 0
2 -287z"/>
<path d="M2877 3043 c-4 -3 -7 -64 -7 -135 l0 -128 155 0 155 0 0 135 0 135
-148 0 c-82 0 -152 -3 -155 -7z"/>
<path d="M1950 2910 l0 -131 148 3 147 3 3 128 3 127 -151 0 -150 0 0 -130z"/>
<path d="M2694 2513 c-21 -68 -48 -96 -116 -117 -16 -5 -18 -21 -18 -152 l0
-147 59 6 c179 16 352 189 368 368 l6 59 -147 0 c-131 0 -147 -2 -152 -17z"/>
<path d="M2371 1470 c-243 -34 -484 -126 -686 -263 -129 -88 -313 -275 -403
-410 -147 -221 -236 -468 -258 -719 l-7 -78 167 0 166 0 0 41 c0 115 104 457
135 445 7 -2 168 -113 358 -245 l345 -241 376 0 376 0 350 245 350 244 21 -42
c49 -94 94 -259 105 -378 l7 -69 167 0 168 0 -5 48 c-35 392 -190 725 -462
992 -213 209 -458 340 -766 411 -103 23 -393 34 -504 19z m395 -335 c224 -39
447 -150 618 -306 l68 -63 -22 -18 c-12 -10 -213 -151 -446 -313 -271 -190
-428 -294 -436 -289 -14 8 -870 604 -877 611 -8 7 83 94 157 150 138 104 321
188 486 223 116 24 328 26 452 5z"/>
</g>
</svg>
